Coordinates
version=1
nRows=12
nColumns=34
inDegrees=no

Units are S.I. units (second, meters, Newtons, ...)
If the header above contains a line with 'inDegrees', this indicates whether rotational values are in degrees (yes) or radians (no).

endheader
time	pelvis_tilt	pelvis_list	pelvis_rotation	pelvis_tx	pelvis_ty	pelvis_tz	hip_flexion_r	hip_adduction_r	hip_rotation_r	knee_angle_r	ankle_angle_r	subtalar_angle_r	mtp_angle_r	hip_flexion_l	hip_adduction_l	hip_rotation_l	knee_angle_l	ankle_angle_l	subtalar_angle_l	mtp_angle_l	lumbar_extension	lumbar_bending	lumbar_rotation	arm_flex_r	arm_add_r	arm_rot_r	elbow_flex_r	pro_sup_r	arm_flex_l	arm_add_l	arm_rot_l	elbow_flex_l	pro_sup_l
1.29	-0.20054	-0.0431574	0.0737524	-0.465389	0.862988	-0.601762	0.762373	-0.132521	-0.164473	0.470507	0.222378	-0.0237104	-0.142765	0.785875	-0.136583	-0.117914	0.492587	0.213111	0.19028	-0.142745	-0.397222	-0.0139645	-0.016718	0.0511968	-0.868972	-0.171907	2.36931	1.66503	0.717282	-0.855524	0.507158	2.06536	0.899455
1.3	-0.2142	-0.04746	0.0668147	-0.461046	0.833288	-0.601113	0.871829	-0.121807	-0.13341	0.612596	0.190035	-0.0784484	-0.142766	0.899227	-0.141061	-0.0915023	0.649066	0.211881	0.128636	-0.142746	-0.398154	-0.0109165	-0.0135409	0.141391	-0.866704	-0.14315	2.33787	1.64028	0.754551	-0.840914	0.51297	2.01567	1.31235
1.31	-0.223902	-0.0507325	0.0596387	-0.456489	0.805726	-0.600568	0.973383	-0.112545	-0.105584	0.748799	0.1718	-0.123294	-0.142766	1.00252	-0.146027	-0.0671074	0.796985	0.219626	0.0762447	-0.142747	-0.405066	-0.00882611	-0.0107289	0.236376	-0.862037	-0.111435	2.3068	1.61479	0.79624	-0.825799	0.514547	1.97778	1.61959
1.32	-0.229698	-0.0529575	0.0522713	-0.451923	0.782227	-0.60032	1.06675	-0.104795	-0.0811197	0.878513	0.167133	-0.158458	-0.142766	1.09558	-0.151494	-0.044916	0.935905	0.236007	0.0332085	-0.142747	-0.417863	-0.00771033	-0.00828547	0.335891	-0.85497	-0.07694	2.27619	1.58872	0.842365	-0.81017	0.512289	1.95095	1.82772
1.33	-0.231825	-0.054123	0.0448271	-0.447336	0.760656	-0.600259	1.15139	-0.0987141	-0.0602714	1.00043	0.174621	-0.18455	-0.142767	1.17816	-0.157517	-0.0253804	1.06495	0.260176	-0.000253311	-0.142748	-0.436157	-0.00759929	-0.00621428	0.439205	-0.845519	-0.0401503	2.24634	1.56252	0.892906	-0.793986	0.507056	1.93356	1.95042
1.34	-0.230819	-0.0542448	0.0374835	-0.442591	0.739146	-0.600233	1.22696	-0.094521	-0.0432376	1.11312	0.192184	-0.20244	-0.142767	1.25036	-0.164198	-0.00905407	1.18326	0.290848	-0.0239256	-0.142748	-0.459126	-0.00851784	-0.00451735	0.545086	-0.833744	-0.00186462	2.21769	1.53699	0.947716	-0.777155	0.500028	1.92339	2.00615
1.35	-0.227457	-0.0533163	0.0304823	-0.437657	0.717315	-0.600247	1.29362	-0.0924018	-0.0299056	1.21577	0.217543	-0.212904	-0.142767	1.31285	-0.171593	0.00371138	1.29046	0.326393	-0.0378544	-0.142749	-0.485527	-0.0104335	-0.00321368	0.651944	-0.819751	0.0369369	2.19076	1.51313	1.00643	-0.75957	0.492469	1.91796	2.01491
1.36	-0.222689	-0.0513614	0.0240866	-0.43287	0.695632	-0.600353	1.35219	-0.0924321	-0.0197142	1.30856	0.24849	-0.216462	-0.142768	1.36684	-0.179608	0.0129769	1.38687	0.364884	-0.0426183	-0.14275	-0.513945	-0.0132342	-0.00238035	0.758092	-0.803672	0.0752742	2.16606	1.49198	1.06845	-0.741181	0.485527	1.91493	1.99539
1.37	-0.217302	-0.0484817	0.0185545	-0.428427	0.674732	-0.600631	1.40394	-0.0945177	-0.0117477	1.39245	0.2829	-0.213581	-0.142768	1.4139	-0.187983	0.0192328	1.47338	0.404217	-0.0394348	-0.14275	-0.543038	-0.0167177	-0.00215528	0.862032	-0.785646	0.112326	2.14396	1.47438	1.13305	-0.722092	0.48013	1.91247	1.96306
1.38	-0.211838	-0.0448861	0.014093	-0.42418	0.654944	-0.600989	1.45023	-0.0983734	-0.00498767	1.46882	0.318708	-0.205005	-0.142769	1.45557	-0.196358	0.0232883	1.55122	0.442389	-0.0300286	-0.142751	-0.571813	-0.0205808	-0.00270475	0.962657	-0.765815	0.147521	2.12463	1.46082	1.19947	-0.702602	0.476959	1.90939	1.92911
1.39	-0.206471	-0.0408973	0.0108255	-0.419946	0.636441	-0.601362	1.49223	-0.103554	0.0014312	1.53899	0.354033	-0.191918	-0.142769	1.49315	-0.204344	0.0261252	1.6217	0.477824	-0.0163604	-0.142752	-0.599717	-0.0244367	-0.00417521	1.05931	-0.74432	0.180532	2.10802	1.45136	1.26708	-0.683173	0.476435	1.90515	1.90035
1.4	-0.201153	-0.0368856	0.00880612	-0.415641	0.619255	-0.601768	1.53068	-0.109523	0.00807708	1.60409	0.38742	-0.175836	-0.142769	1.52749	-0.211573	0.0287536	1.68603	0.509587	-0.000332389	-0.142752	-0.626643	-0.0278464	-0.00664762	1.15168	-0.721322	0.211186	2.09391	1.44565	1.33529	-0.664297	0.478696	1.89974	1.87979
